<svg width="400" height="162" viewBox="0 0 400 162" fill="none" xmlns="http://www.w3.org/2000/svg">
<rect width="400" height="162" fill="#2E3440"/>
<path d="M79.4399 95L77.6284 89.0527H68.5195L66.708 95H61L69.8184 69.9121H76.2954L85.1479 95H79.4399ZM76.3638 84.6094L74.5522 78.7988C74.4383 78.4115 74.2845 77.9159 74.0908 77.312C73.9085 76.6968 73.7205 76.0758 73.5269 75.4492C73.3446 74.8112 73.1965 74.2586 73.0825 73.7915C72.9686 74.2586 72.8091 74.8397 72.604 75.5347C72.4103 76.2183 72.2223 76.8677 72.04 77.4829C71.8577 78.0981 71.7267 78.5368 71.647 78.7988L69.8525 84.6094H76.3638ZM95.9487 91.189C96.5184 91.189 97.071 91.132 97.6064 91.0181C98.1533 90.9041 98.6945 90.7617 99.23 90.5908V94.4702C98.6717 94.7209 97.9767 94.9259 97.145 95.0854C96.3247 95.2563 95.4246 95.3418 94.4448 95.3418C93.3055 95.3418 92.2801 95.1595 91.3687 94.7949C90.4686 94.4189 89.7565 93.7752 89.2324 92.8638C88.7197 91.9409 88.4634 90.6592 88.4634 89.0186V79.8071H85.9683V77.6025L88.8394 75.8594L90.3433 71.8262H93.6758V75.8936H99.0249V79.8071H93.6758V89.0186C93.6758 89.7477 93.8809 90.2946 94.291 90.6592C94.7126 91.0124 95.2651 91.189 95.9487 91.189ZM108.322 68.4082V73.8257C108.322 74.7713 108.288 75.6714 108.219 76.5259C108.162 77.3804 108.117 77.9842 108.083 78.3374H108.356C108.766 77.6766 109.25 77.1411 109.809 76.731C110.378 76.3208 111.005 76.0189 111.688 75.8252C112.372 75.6315 113.107 75.5347 113.893 75.5347C115.272 75.5347 116.474 75.7796 117.499 76.2695C118.524 76.748 119.322 77.5057 119.892 78.5425C120.461 79.5679 120.746 80.9009 120.746 82.5415V95H115.534V83.8403C115.534 82.4731 115.283 81.4421 114.782 80.7471C114.28 80.0521 113.506 79.7046 112.458 79.7046C111.409 79.7046 110.583 79.9495 109.979 80.4395C109.376 80.918 108.948 81.63 108.698 82.5757C108.447 83.5099 108.322 84.6549 108.322 86.0107V95H103.109V68.4082H108.322ZM133.939 75.5005C136.503 75.5005 138.468 76.0588 139.835 77.1753C141.203 78.2918 141.886 79.9894 141.886 82.2681V95H138.246L137.238 92.4023H137.101C136.554 93.0859 135.996 93.6442 135.426 94.0771C134.857 94.5101 134.201 94.8291 133.461 95.0342C132.72 95.2393 131.82 95.3418 130.761 95.3418C129.633 95.3418 128.619 95.1253 127.719 94.6924C126.83 94.2594 126.129 93.5986 125.617 92.71C125.104 91.8099 124.848 90.6706 124.848 89.292C124.848 87.264 125.56 85.7715 126.984 84.8145C128.408 83.846 130.544 83.3105 133.393 83.208L136.708 83.1055V82.2681C136.708 81.2655 136.446 80.5306 135.922 80.0635C135.398 79.5964 134.669 79.3628 133.734 79.3628C132.812 79.3628 131.906 79.4938 131.017 79.7559C130.128 80.0179 129.24 80.3483 128.351 80.7471L126.625 77.2266C127.639 76.6911 128.773 76.2695 130.026 75.9619C131.291 75.6543 132.595 75.5005 133.939 75.5005ZM136.708 86.1475L134.691 86.2158C133.005 86.2614 131.832 86.5633 131.171 87.1216C130.521 87.6799 130.197 88.4147 130.197 89.3262C130.197 90.1237 130.43 90.6934 130.897 91.0352C131.365 91.3656 131.974 91.5308 132.726 91.5308C133.843 91.5308 134.783 91.2004 135.546 90.5396C136.321 89.8787 136.708 88.9388 136.708 87.7197V86.1475ZM157.934 75.5347C158.196 75.5347 158.498 75.5518 158.839 75.5859C159.193 75.6087 159.477 75.6429 159.694 75.6885L159.301 80.5762C159.13 80.5192 158.885 80.4793 158.566 80.4565C158.258 80.4224 157.991 80.4053 157.763 80.4053C157.09 80.4053 156.435 80.4907 155.797 80.6616C155.171 80.8325 154.607 81.1117 154.105 81.499C153.604 81.875 153.205 82.3763 152.909 83.0029C152.624 83.6182 152.482 84.3758 152.482 85.2759V95H147.27V75.8936H151.217L151.986 79.1064H152.243C152.619 78.457 153.086 77.8646 153.644 77.3291C154.214 76.7822 154.857 76.3493 155.575 76.0303C156.304 75.6999 157.09 75.5347 157.934 75.5347ZM167.709 95L160.429 75.8936H165.88L169.572 86.7798C169.777 87.4178 169.936 88.09 170.05 88.7964C170.176 89.5028 170.261 90.1351 170.307 90.6934H170.443C170.478 90.0895 170.557 89.4458 170.683 88.7622C170.819 88.0786 170.996 87.4178 171.212 86.7798L174.887 75.8936H180.338L173.058 95H167.709ZM214.757 95H208.024L197.155 76.0986H197.001C197.047 76.8848 197.086 77.6766 197.121 78.4741C197.155 79.2716 197.189 80.0692 197.223 80.8667C197.257 81.6528 197.292 82.4447 197.326 83.2422V95H192.592V70.0146H199.274L210.126 88.728H210.246C210.223 87.9533 210.194 87.1842 210.16 86.4209C210.126 85.6576 210.092 84.8942 210.058 84.1309C210.035 83.3675 210.012 82.6042 209.989 81.8408V70.0146H214.757V95ZM228.412 85.4126C228.412 83.5099 228.594 81.6528 228.959 79.8413C229.324 78.0184 229.888 76.2809 230.651 74.6289C231.414 72.9655 232.383 71.4274 233.556 70.0146H237.829C236.234 72.2021 235.02 74.6175 234.188 77.2607C233.368 79.904 232.958 82.6099 232.958 85.3784C232.958 87.1785 233.14 88.973 233.505 90.7617C233.869 92.5391 234.411 94.2537 235.128 95.9058C235.858 97.5578 236.746 99.1016 237.794 100.537H233.556C232.383 99.1699 231.414 97.6717 230.651 96.0425C229.888 94.4246 229.324 92.7214 228.959 90.9326C228.594 89.1325 228.412 87.2925 228.412 85.4126ZM249.433 75.5005C251.996 75.5005 253.961 76.0588 255.329 77.1753C256.696 78.2918 257.379 79.9894 257.379 82.2681V95H253.739L252.731 92.4023H252.594C252.047 93.0859 251.489 93.6442 250.919 94.0771C250.35 94.5101 249.695 94.8291 248.954 95.0342C248.214 95.2393 247.313 95.3418 246.254 95.3418C245.126 95.3418 244.112 95.1253 243.212 94.6924C242.323 94.2594 241.623 93.5986 241.11 92.71C240.597 91.8099 240.341 90.6706 240.341 89.292C240.341 87.264 241.053 85.7715 242.477 84.8145C243.901 83.846 246.037 83.3105 248.886 83.208L252.201 83.1055V82.2681C252.201 81.2655 251.939 80.5306 251.415 80.0635C250.891 79.5964 250.162 79.3628 249.228 79.3628C248.305 79.3628 247.399 79.4938 246.51 79.7559C245.622 80.0179 244.733 80.3483 243.844 80.7471L242.118 77.2266C243.132 76.6911 244.266 76.2695 245.519 75.9619C246.784 75.6543 248.088 75.5005 249.433 75.5005ZM252.201 86.1475L250.185 86.2158C248.498 86.2614 247.325 86.5633 246.664 87.1216C246.015 87.6799 245.69 88.4147 245.69 89.3262C245.69 90.1237 245.924 90.6934 246.391 91.0352C246.858 91.3656 247.467 91.5308 248.219 91.5308C249.336 91.5308 250.276 91.2004 251.039 90.5396C251.814 89.8787 252.201 88.9388 252.201 87.7197V86.1475ZM270.812 91.189C271.382 91.189 271.934 91.132 272.47 91.0181C273.017 90.9041 273.558 90.7617 274.093 90.5908V94.4702C273.535 94.7209 272.84 94.9259 272.008 95.0854C271.188 95.2563 270.288 95.3418 269.308 95.3418C268.169 95.3418 267.143 95.1595 266.232 94.7949C265.332 94.4189 264.62 93.7752 264.096 92.8638C263.583 91.9409 263.327 90.6592 263.327 89.0186V79.8071H260.832V77.6025L263.703 75.8594L265.207 71.8262H268.539V75.8936H273.888V79.8071H268.539V89.0186C268.539 89.7477 268.744 90.2946 269.154 90.6592C269.576 91.0124 270.128 91.189 270.812 91.189ZM283.185 68.4082V73.8257C283.185 74.7713 283.151 75.6714 283.083 76.5259C283.026 77.3804 282.98 77.9842 282.946 78.3374H283.219C283.629 77.6766 284.114 77.1411 284.672 76.731C285.242 76.3208 285.868 76.0189 286.552 75.8252C287.235 75.6315 287.97 75.5347 288.756 75.5347C290.135 75.5347 291.337 75.7796 292.362 76.2695C293.388 76.748 294.185 77.5057 294.755 78.5425C295.325 79.5679 295.609 80.9009 295.609 82.5415V95H290.397V83.8403C290.397 82.4731 290.146 81.4421 289.645 80.7471C289.144 80.0521 288.369 79.7046 287.321 79.7046C286.273 79.7046 285.447 79.9495 284.843 80.4395C284.239 80.918 283.812 81.63 283.561 82.5757C283.31 83.5099 283.185 84.6549 283.185 86.0107V95H277.973V68.4082H283.185ZM323.551 95H316.818L305.949 76.0986H305.795C305.84 76.8848 305.88 77.6766 305.915 78.4741C305.949 79.2716 305.983 80.0692 306.017 80.8667C306.051 81.6528 306.085 82.4447 306.12 83.2422V95H301.386V70.0146H308.068L318.92 88.728H319.04C319.017 87.9533 318.988 87.1842 318.954 86.4209C318.92 85.6576 318.886 84.8942 318.852 84.1309C318.829 83.3675 318.806 82.6042 318.783 81.8408V70.0146H323.551V95ZM337.172 85.4126C337.172 87.2925 336.99 89.1325 336.625 90.9326C336.26 92.7214 335.696 94.4246 334.933 96.0425C334.181 97.6717 333.213 99.1699 332.028 100.537H327.79C328.849 99.1016 329.738 97.5578 330.456 95.9058C331.173 94.2537 331.715 92.5391 332.079 90.7617C332.444 88.973 332.626 87.1785 332.626 85.3784C332.626 83.5327 332.438 81.7098 332.062 79.9097C331.697 78.1095 331.156 76.3778 330.438 74.7144C329.721 73.0396 328.826 71.473 327.755 70.0146H332.028C333.213 71.4274 334.181 72.9655 334.933 74.6289C335.696 76.2809 336.26 78.0184 336.625 79.8413C336.99 81.6528 337.172 83.5099 337.172 85.4126Z" fill="white"/>
</svg>
